<svg xmlns="http://www.w3.org/2000/svg" viewBox="0 0 64 64" width="100%" height="100%">
  <!-- Dark Blue Background with rounded corners -->
  <rect width="64" height="64" rx="14" fill="#0A1F44" />
  
  <!-- Globe Icon Group -->
  <g transform="translate(4, 18) scale(1.6667)" stroke="#ffffff" stroke-width="1.5" fill="none" stroke-linecap="round" stroke-linejoin="round">
    <circle cx="12" cy="12" r="10" />
    <path d="M12 2a14.5 14.5 0 0 0 0 20 14.5 14.5 0 0 0 0-20" />
    <path d="M2 12h20" />
  </g>
  
  <!-- Plane Icon Group -->
  <g transform="translate(36, 10) scale(0.8333) rotate(45, 12, 12)" fill="#ffffff">
    <path d="M17.8 19.2 16 11l3.5-3.5C21 6 21.5 4 21 3c-1-.5-3 0-4.5 1.5L13 8 4.8 6.2c-.5-.1-.9.1-1.1.5l-.3.5c-.2.5-.1 1 .3 1.3L9 12l-2 3H4l-1 1 3 2 2 3 1-1v-3l3-2 3.5 5.3c.3.4.8.5 1.3.3l.5-.2c.4-.3.6-.7.5-1.2z" />
  </g>
</svg>
